{
    "asset" : {
        "generator" : "Khronos glTF Blender I/O v3.2.43",
        "version" : "2.0"
    },
    "scene" : 0,
    "scenes" : [
        {
            "name" : "Scene",
            "nodes" : [
                0
            ]
        }
    ],
    "nodes" : [
        {
            "mesh" : 0,
            "name" : "Part2",
            "rotation" : [
                0.7071068286895752,
                0,
                0,
                0.7071067094802856
            ]
        }
    ],
    "materials" : [
        {
            "doubleSided" : true,
            "name" : "body",
            "pbrMetallicRoughness" : {
                "baseColorFactor" : [
                    0.00445058336481452,
                    0.5127471089363098,
                    0.8000000715255737,
                    1
                ],
                "metallicFactor" : 0,
                "roughnessFactor" : 0
            }
        },
        {
            "doubleSided" : true,
            "name" : "Material.002",
            "pbrMetallicRoughness" : {
                "baseColorFactor" : [
                    0,
                    0,
                    0,
                    1
                ],
                "metallicFactor" : 0,
                "roughnessFactor" : 0.5
            }
        },
        {
            "doubleSided" : true,
            "name" : "Material.003",
            "pbrMetallicRoughness" : {
                "baseColorFactor" : [
                    0.0036446209996938705,
                    0,
                    0.03106318600475788,
                    1
                ],
                "metallicFactor" : 0,
                "roughnessFactor" : 0.5
            }
        },
        {
            "doubleSided" : true,
            "name" : "Material.004",
            "pbrMetallicRoughness" : {
                "baseColorFactor" : [
                    0.8000000715255737,
                    0.7444618940353394,
                    0,
                    1
                ],
                "metallicFactor" : 0,
                "roughnessFactor" : 0.5
            }
        },
        {
            "doubleSided" : true,
            "name" : "Material.005",
            "pbrMetallicRoughness" : {
                "baseColorFactor" : [
                    0.009259955957531929,
                    0,
                    0.5595992207527161,
                    1
                ],
                "metallicFactor" : 0,
                "roughnessFactor" : 0.5
            }
        },
        {
            "doubleSided" : true,
            "name" : "Material.006",
            "pbrMetallicRoughness" : {
                "baseColorFactor" : [
                    0,
                    0.7367324233055115,
                    0.8000000715255737,
                    1
                ],
                "metallicFactor" : 0,
                "roughnessFactor" : 0.5
            }
        },
        {
            "doubleSided" : true,
            "name" : "Material.007",
            "pbrMetallicRoughness" : {
                "baseColorFactor" : [
                    0.007671758066862822,
                    0.5925769209861755,
                    0,
                    1
                ],
                "metallicFactor" : 0,
                "roughnessFactor" : 0.5
            }
        },
        {
            "doubleSided" : true,
            "name" : "Material.008",
            "pbrMetallicRoughness" : {
                "baseColorFactor" : [
                    0.8000000715255737,
                    0,
                    0.0006632444565184414,
                    1
                ],
                "metallicFactor" : 0,
                "roughnessFactor" : 0.5
            }
        }
    ],
    "meshes" : [
        {
            "name" : "Part2",
            "primitives" : [
                {
                    "attributes" : {
                        "POSITION" : 0,
                        "NORMAL" : 1,
                        "COLOR_0" : 2
                    },
                    "indices" : 3,
                    "material" : 0
                },
                {
                    "attributes" : {
                        "POSITION" : 4,
                        "NORMAL" : 5,
                        "COLOR_0" : 6
                    },
                    "indices" : 7,
                    "material" : 1
                },
                {
                    "attributes" : {
                        "POSITION" : 8,
                        "NORMAL" : 9,
                        "COLOR_0" : 10
                    },
                    "indices" : 11,
                    "material" : 2
                },
                {
                    "attributes" : {
                        "POSITION" : 12,
                        "NORMAL" : 13,
                        "COLOR_0" : 14
                    },
                    "indices" : 15,
                    "material" : 3
                },
                {
                    "attributes" : {
                        "POSITION" : 16,
                        "NORMAL" : 17,
                        "COLOR_0" : 18
                    },
                    "indices" : 19,
                    "material" : 4
                },
                {
                    "attributes" : {
                        "POSITION" : 20,
                        "NORMAL" : 21,
                        "COLOR_0" : 22
                    },
                    "indices" : 23,
                    "material" : 5
                },
                {
                    "attributes" : {
                        "POSITION" : 24,
                        "NORMAL" : 25,
                        "COLOR_0" : 26
                    },
                    "indices" : 27,
                    "material" : 6
                },
                {
                    "attributes" : {
                        "POSITION" : 28,
                        "NORMAL" : 29,
                        "COLOR_0" : 30
                    },
                    "indices" : 31,
                    "material" : 7
                }
            ]
        }
    ],
    "accessors" : [
        {
            "bufferView" : 0,
            "componentType" : 5126,
            "count" : 46542,
            "max" : [
                7.645674228668213,
                4.509504795074463,
                13.654539108276367
            ],
            "min" : [
                -7.354325771331787,
                -4.340494632720947,
                -14.445462226867676
            ],
            "type" : "VEC3"
        },
        {
            "bufferView" : 1,
            "componentType" : 5126,
            "count" : 46542,
            "type" : "VEC3"
        },
        {
            "bufferView" : 2,
            "componentType" : 5123,
            "count" : 46542,
            "normalized" : true,
            "type" : "VEC4"
        },
        {
            "bufferView" : 3,
            "componentType" : 5123,
            "count" : 48147,
            "type" : "SCALAR"
        },
        {
            "bufferView" : 4,
            "componentType" : 5126,
            "count" : 773,
            "max" : [
                2.5624451637268066,
                3.9095053672790527,
                -3.718073844909668
            ],
            "min" : [
                -2.637050151824951,
                3.6595053672790527,
                -6.121228218078613
            ],
            "type" : "VEC3"
        },
        {
            "bufferView" : 5,
            "componentType" : 5126,
            "count" : 773,
            "type" : "VEC3"
        },
        {
            "bufferView" : 6,
            "componentType" : 5123,
            "count" : 773,
            "normalized" : true,
            "type" : "VEC4"
        },
        {
            "bufferView" : 7,
            "componentType" : 5123,
            "count" : 1137,
            "type" : "SCALAR"
        },
        {
            "bufferView" : 8,
            "componentType" : 5126,
            "count" : 219,
            "max" : [
                1.373466968536377,
                4.309505939483643,
                9.613879203796387
            ],
            "min" : [
                -4.962305068969727,
                2.9095053672790527,
                0.6915035247802734
            ],
            "type" : "VEC3"
        },
        {
            "bufferView" : 9,
            "componentType" : 5126,
            "count" : 219,
            "type" : "VEC3"
        },
        {
            "bufferView" : 10,
            "componentType" : 5123,
            "count" : 219,
            "normalized" : true,
            "type" : "VEC4"
        },
        {
            "bufferView" : 11,
            "componentType" : 5123,
            "count" : 246,
            "type" : "SCALAR"
        },
        {
            "bufferView" : 12,
            "componentType" : 5126,
            "count" : 83,
            "max" : [
                -1.7733101844787598,
                4.509504795074463,
                6.701768398284912
            ],
            "min" : [
                -5.02331018447876,
                4.159505367279053,
                3.4517688751220703
            ],
            "type" : "VEC3"
        },
        {
            "bufferView" : 13,
            "componentType" : 5126,
            "count" : 83,
            "type" : "VEC3"
        },
        {
            "bufferView" : 14,
            "componentType" : 5123,
            "count" : 83,
            "normalized" : true,
            "type" : "VEC4"
        },
        {
            "bufferView" : 15,
            "componentType" : 5123,
            "count" : 120,
            "type" : "SCALAR"
        },
        {
            "bufferView" : 16,
            "componentType" : 5126,
            "count" : 2318,
            "max" : [
                6.22067403793335,
                4.409505367279053,
                4.700242042541504
            ],
            "min" : [
                3.485914707183838,
                -1.5896916389465332,
                -2.236082077026367
            ],
            "type" : "VEC3"
        },
        {
            "bufferView" : 17,
            "componentType" : 5126,
            "count" : 2318,
            "type" : "VEC3"
        },
        {
            "bufferView" : 18,
            "componentType" : 5123,
            "count" : 2318,
            "normalized" : true,
            "type" : "VEC4"
        },
        {
            "bufferView" : 19,
            "componentType" : 5123,
            "count" : 2697,
            "type" : "SCALAR"
        },
        {
            "bufferView" : 20,
            "componentType" : 5126,
            "count" : 21,
            "max" : [
                2.0655617713928223,
                4.459505558013916,
                4.515508651733398
            ],
            "min" : [
                0.3335108757019043,
                4.159505367279053,
                3.0155086517333984
            ],
            "type" : "VEC3"
        },
        {
            "bufferView" : 21,
            "componentType" : 5126,
            "count" : 21,
            "type" : "VEC3"
        },
        {
            "bufferView" : 22,
            "componentType" : 5123,
            "count" : 21,
            "normalized" : true,
            "type" : "VEC4"
        },
        {
            "bufferView" : 23,
            "componentType" : 5123,
            "count" : 27,
            "type" : "SCALAR"
        },
        {
            "bufferView" : 24,
            "componentType" : 5126,
            "count" : 95,
            "max" : [
                4.430593013763428,
                4.459505558013916,
                5.17872428894043
            ],
            "min" : [
                3.263698101043701,
                4.459505558013916,
                4.011829376220703
            ],
            "type" : "VEC3"
        },
        {
            "bufferView" : 25,
            "componentType" : 5126,
            "count" : 95,
            "type" : "VEC3"
        },
        {
            "bufferView" : 26,
            "componentType" : 5123,
            "count" : 95,
            "normalized" : true,
            "type" : "VEC4"
        },
        {
            "bufferView" : 27,
            "componentType" : 5123,
            "count" : 108,
            "type" : "SCALAR"
        },
        {
            "bufferView" : 28,
            "componentType" : 5126,
            "count" : 287,
            "max" : [
                3.1383776664733887,
                4.459505558013916,
                7.6743292808532715
            ],
            "min" : [
                1.3478617668151855,
                4.159505367279053,
                5.88381290435791
            ],
            "type" : "VEC3"
        },
        {
            "bufferView" : 29,
            "componentType" : 5126,
            "count" : 287,
            "type" : "VEC3"
        },
        {
            "bufferView" : 30,
            "componentType" : 5123,
            "count" : 287,
            "normalized" : true,
            "type" : "VEC4"
        },
        {
            "bufferView" : 31,
            "componentType" : 5123,
            "count" : 324,
            "type" : "SCALAR"
        }
    ],
    "bufferViews" : [
        {
            "buffer" : 0,
            "byteLength" : 558504,
            "byteOffset" : 0
        },
        {
            "buffer" : 0,
            "byteLength" : 558504,
            "byteOffset" : 558504
        },
        {
            "buffer" : 0,
            "byteLength" : 372336,
            "byteOffset" : 1117008
        },
        {
            "buffer" : 0,
            "byteLength" : 96294,
            "byteOffset" : 1489344
        },
        {
            "buffer" : 0,
            "byteLength" : 9276,
            "byteOffset" : 1585640
        },
        {
            "buffer" : 0,
            "byteLength" : 9276,
            "byteOffset" : 1594916
        },
        {
            "buffer" : 0,
            "byteLength" : 6184,
            "byteOffset" : 1604192
        },
        {
            "buffer" : 0,
            "byteLength" : 2274,
            "byteOffset" : 1610376
        },
        {
            "buffer" : 0,
            "byteLength" : 2628,
            "byteOffset" : 1612652
        },
        {
            "buffer" : 0,
            "byteLength" : 2628,
            "byteOffset" : 1615280
        },
        {
            "buffer" : 0,
            "byteLength" : 1752,
            "byteOffset" : 1617908
        },
        {
            "buffer" : 0,
            "byteLength" : 492,
            "byteOffset" : 1619660
        },
        {
            "buffer" : 0,
            "byteLength" : 996,
            "byteOffset" : 1620152
        },
        {
            "buffer" : 0,
            "byteLength" : 996,
            "byteOffset" : 1621148
        },
        {
            "buffer" : 0,
            "byteLength" : 664,
            "byteOffset" : 1622144
        },
        {
            "buffer" : 0,
            "byteLength" : 240,
            "byteOffset" : 1622808
        },
        {
            "buffer" : 0,
            "byteLength" : 27816,
            "byteOffset" : 1623048
        },
        {
            "buffer" : 0,
            "byteLength" : 27816,
            "byteOffset" : 1650864
        },
        {
            "buffer" : 0,
            "byteLength" : 18544,
            "byteOffset" : 1678680
        },
        {
            "buffer" : 0,
            "byteLength" : 5394,
            "byteOffset" : 1697224
        },
        {
            "buffer" : 0,
            "byteLength" : 252,
            "byteOffset" : 1702620
        },
        {
            "buffer" : 0,
            "byteLength" : 252,
            "byteOffset" : 1702872
        },
        {
            "buffer" : 0,
            "byteLength" : 168,
            "byteOffset" : 1703124
        },
        {
            "buffer" : 0,
            "byteLength" : 54,
            "byteOffset" : 1703292
        },
        {
            "buffer" : 0,
            "byteLength" : 1140,
            "byteOffset" : 1703348
        },
        {
            "buffer" : 0,
            "byteLength" : 1140,
            "byteOffset" : 1704488
        },
        {
            "buffer" : 0,
            "byteLength" : 760,
            "byteOffset" : 1705628
        },
        {
            "buffer" : 0,
            "byteLength" : 216,
            "byteOffset" : 1706388
        },
        {
            "buffer" : 0,
            "byteLength" : 3444,
            "byteOffset" : 1706604
        },
        {
            "buffer" : 0,
            "byteLength" : 3444,
            "byteOffset" : 1710048
        },
        {
            "buffer" : 0,
            "byteLength" : 2296,
            "byteOffset" : 1713492
        },
        {
            "buffer" : 0,
            "byteLength" : 648,
            "byteOffset" : 1715788
        }
    ],
    "buffers" : [
        {
            "byteLength" : 1716436,
            "uri" : "BMO.bin"
        }
    ]
}
